<?xml version="1.0" encoding="utf-8"?>
<!-- Generator: Adobe Illustrator 19.0.0, SVG Export Plug-In . SVG Version: 6.00 Build 0)  -->
<svg version="1.1" id="Layer_1" xmlns="http://www.w3.org/2000/svg" xmlns:xlink="http://www.w3.org/1999/xlink" x="0px" y="0px"
	 viewBox="-61 366.2 488 61.8" style="enable-background:new -61 366.2 488 61.8;" xml:space="preserve">
<style type="text/css">
	.st0{fill:#0AB0D2;}
	.st1{clip-path:url(#SVGID_2_);fill:#FFFFFF;}
	.st2{clip-path:url(#SVGID_4_);fill:#1A1F33;}
	.st3{fill:#1B1F33;}
</style>
<rect x="-62" y="365" class="st0" width="491" height="51.3"/>
<g>
	<g>
		<g>
			<g>
				<defs>
					
						<rect id="SVGID_1_" x="-62" y="366.3" transform="matrix(1 5.283781e-003 -5.283781e-003 1 2.0817 -0.9635)" width="490.8" height="54.4"/>
				</defs>
				<clipPath id="SVGID_2_">
					<use xlink:href="#SVGID_1_"  style="overflow:visible;"/>
				</clipPath>
				<path class="st1" d="M199.1,391.5c-126.9,44.8-214.3,16.8-260.9-9.2l-0.2,36.9l490.8,2.6l0.2-39.6
					C377.7,364.9,300.5,355.8,199.1,391.5"/>
			</g>
		</g>
	</g>
</g>
<g>
	<g>
		<g>
			<g>
				<defs>
					<rect id="SVGID_3_" x="-62" y="370.2" width="491" height="54.4"/>
				</defs>
				<clipPath id="SVGID_4_">
					<use xlink:href="#SVGID_3_"  style="overflow:visible;"/>
				</clipPath>
				<path class="st2" d="M199,395.4c-126.6,45.4-214.3,17.9-261-7.7v36.9h491v-39.5C377.7,367.9,300.3,359.2,199,395.4"/>
			</g>
		</g>
	</g>
</g>
<rect x="-62.2" y="422.4" class="st3" width="491.1" height="39.6"/>
</svg>
